<svg width="1010" height="248" viewBox="0 0 1010 248" fill="none" xmlns="http://www.w3.org/2000/svg">
<path d="M593.802 210.713C592.995 208.856 591.757 207.403 590.088 206.353C588.446 205.277 586.509 204.738 584.275 204.738C582.175 204.738 580.291 205.223 578.622 206.192C576.954 207.161 575.635 208.547 574.666 210.35C573.697 212.127 573.213 214.199 573.213 216.567C573.213 218.936 573.697 221.022 574.666 222.825C575.635 224.628 576.954 226.015 578.622 226.983C580.291 227.952 582.175 228.437 584.275 228.437C586.239 228.437 588.002 228.02 589.563 227.185C591.151 226.324 592.416 225.113 593.358 223.552C594.327 221.964 594.879 220.12 595.014 218.021H583.144V215.72H598.001V217.779C597.867 220.255 597.194 222.502 595.983 224.521C594.771 226.512 593.143 228.087 591.097 229.244C589.079 230.402 586.805 230.98 584.275 230.98C581.664 230.98 579.295 230.375 577.169 229.164C575.043 227.925 573.361 226.216 572.123 224.036C570.911 221.829 570.306 219.34 570.306 216.567C570.306 213.795 570.911 211.319 572.123 209.139C573.361 206.932 575.043 205.223 577.169 204.012C579.295 202.774 581.664 202.155 584.275 202.155C587.289 202.155 589.927 202.908 592.188 204.415C594.448 205.923 596.09 208.022 597.113 210.713H593.802Z" fill="#33666E"/>
<path d="M607.538 219.636C607.538 217.375 607.982 215.397 608.87 213.701C609.785 211.978 611.037 210.66 612.625 209.745C614.24 208.803 616.057 208.332 618.075 208.332C620.175 208.332 621.978 208.816 623.485 209.785C625.019 210.754 626.123 211.992 626.796 213.499V208.655H629.622V230.698H626.796V225.813C626.096 227.32 624.979 228.571 623.445 229.567C621.937 230.536 620.134 231.021 618.035 231.021C616.043 231.021 614.24 230.55 612.625 229.608C611.037 228.666 609.785 227.333 608.87 225.611C607.982 223.888 607.538 221.897 607.538 219.636ZM626.796 219.676C626.796 217.9 626.432 216.339 625.706 214.993C624.979 213.647 623.983 212.611 622.718 211.884C621.48 211.158 620.107 210.794 618.6 210.794C617.039 210.794 615.639 211.144 614.401 211.844C613.163 212.544 612.181 213.566 611.454 214.912C610.754 216.231 610.404 217.806 610.404 219.636C610.404 221.439 610.754 223.027 611.454 224.4C612.181 225.745 613.163 226.782 614.401 227.508C615.639 228.208 617.039 228.558 618.6 228.558C620.107 228.558 621.48 228.195 622.718 227.468C623.983 226.741 624.979 225.705 625.706 224.359C626.432 223.014 626.796 221.452 626.796 219.676Z" fill="#33666E"/>
<path d="M652.061 208.251C654.698 208.251 656.851 209.072 658.52 210.713C660.189 212.328 661.023 214.683 661.023 217.779V230.698H658.238V218.102C658.238 215.706 657.632 213.876 656.421 212.611C655.237 211.346 653.608 210.713 651.536 210.713C649.41 210.713 647.714 211.386 646.449 212.732C645.184 214.078 644.551 216.056 644.551 218.667V230.698H641.725V208.655H644.551V212.409C645.251 211.063 646.26 210.041 647.579 209.341C648.898 208.614 650.392 208.251 652.061 208.251Z" fill="#33666E"/>
<path d="M671.633 219.636C671.633 217.375 672.078 215.397 672.966 213.701C673.881 211.978 675.132 210.66 676.72 209.745C678.335 208.803 680.152 208.332 682.171 208.332C684.27 208.332 686.073 208.816 687.58 209.785C689.115 210.754 690.218 211.992 690.891 213.499V208.655H693.717V230.698H690.891V225.813C690.191 227.32 689.074 228.571 687.54 229.567C686.033 230.536 684.23 231.021 682.13 231.021C680.139 231.021 678.335 230.55 676.72 229.608C675.132 228.666 673.881 227.333 672.966 225.611C672.078 223.888 671.633 221.897 671.633 219.636ZM690.891 219.676C690.891 217.9 690.528 216.339 689.801 214.993C689.074 213.647 688.078 212.611 686.813 211.884C685.575 211.158 684.203 210.794 682.695 210.794C681.134 210.794 679.735 211.144 678.497 211.844C677.259 212.544 676.276 213.566 675.55 214.912C674.85 216.231 674.5 217.806 674.5 219.636C674.5 221.439 674.85 223.027 675.55 224.4C676.276 225.745 677.259 226.782 678.497 227.508C679.735 228.208 681.134 228.558 682.695 228.558C684.203 228.558 685.575 228.195 686.813 227.468C688.078 226.741 689.074 225.705 689.801 224.359C690.528 223.014 690.891 221.452 690.891 219.676Z" fill="#33666E"/>
<path d="M704.529 219.636C704.529 217.375 704.986 215.397 705.902 213.701C706.817 211.978 708.068 210.66 709.656 209.745C711.271 208.803 713.088 208.332 715.106 208.332C717.044 208.332 718.794 208.803 720.355 209.745C721.916 210.687 723.06 211.911 723.786 213.418V200.822H726.612V230.698H723.786V225.772C723.113 227.306 722.01 228.571 720.476 229.567C718.942 230.536 717.138 231.021 715.066 231.021C713.047 231.021 711.231 230.55 709.616 229.608C708.028 228.666 706.776 227.333 705.861 225.611C704.973 223.888 704.529 221.897 704.529 219.636ZM723.786 219.676C723.786 217.9 723.423 216.339 722.696 214.993C721.97 213.647 720.974 212.611 719.709 211.884C718.471 211.158 717.098 210.794 715.591 210.794C714.03 210.794 712.63 211.144 711.392 211.844C710.154 212.544 709.172 213.566 708.445 214.912C707.745 216.231 707.395 217.806 707.395 219.636C707.395 221.439 707.745 223.027 708.445 224.4C709.172 225.745 710.154 226.782 711.392 227.508C712.63 228.208 714.03 228.558 715.591 228.558C717.098 228.558 718.471 228.195 719.709 227.468C720.974 226.741 721.97 225.705 722.696 224.359C723.423 223.014 723.786 221.452 723.786 219.676Z" fill="#33666E"/>
<path d="M758.66 218.546C758.66 219.515 758.633 220.255 758.579 220.766H740.291C740.371 222.435 740.775 223.861 741.502 225.046C742.229 226.23 743.184 227.131 744.368 227.751C745.552 228.343 746.844 228.639 748.244 228.639C750.074 228.639 751.608 228.195 752.846 227.306C754.111 226.418 754.946 225.221 755.349 223.713H758.337C757.799 225.866 756.641 227.629 754.865 229.002C753.116 230.348 750.909 231.021 748.244 231.021C746.172 231.021 744.314 230.563 742.673 229.648C741.031 228.706 739.739 227.387 738.797 225.692C737.882 223.969 737.424 221.964 737.424 219.676C737.424 217.388 737.882 215.383 738.797 213.661C739.712 211.938 740.99 210.619 742.632 209.704C744.274 208.789 746.145 208.332 748.244 208.332C750.343 208.332 752.174 208.789 753.735 209.704C755.323 210.619 756.534 211.857 757.368 213.418C758.229 214.953 758.66 216.662 758.66 218.546ZM755.794 218.465C755.82 216.823 755.484 215.424 754.784 214.266C754.111 213.109 753.183 212.234 751.999 211.642C750.814 211.05 749.522 210.754 748.123 210.754C746.023 210.754 744.234 211.427 742.753 212.772C741.273 214.118 740.452 216.016 740.291 218.465H755.794Z" fill="#33666E"/>
<path d="M772.309 212.571C772.928 211.198 773.87 210.135 775.135 209.381C776.427 208.628 778.001 208.251 779.858 208.251V211.198H779.091C777.046 211.198 775.404 211.75 774.166 212.853C772.928 213.957 772.309 215.8 772.309 218.384V230.698H769.483V208.655H772.309V212.571Z" fill="#33666E"/>
<path d="M791.175 204.496C790.609 204.496 790.125 204.294 789.721 203.891C789.318 203.487 789.116 202.989 789.116 202.397C789.116 201.805 789.318 201.32 789.721 200.943C790.125 200.54 790.609 200.338 791.175 200.338C791.74 200.338 792.224 200.54 792.628 200.943C793.032 201.32 793.234 201.805 793.234 202.397C793.234 202.989 793.032 203.487 792.628 203.891C792.224 204.294 791.74 204.496 791.175 204.496ZM792.588 208.655V230.698H789.762V208.655H792.588Z" fill="#33666E"/>
<path d="M803.347 219.636C803.347 217.375 803.792 215.397 804.68 213.701C805.595 211.978 806.846 210.66 808.434 209.745C810.049 208.803 811.866 208.332 813.885 208.332C815.984 208.332 817.787 208.816 819.294 209.785C820.829 210.754 821.932 211.992 822.605 213.499V208.655H825.431V230.698H822.605V225.813C821.905 227.32 820.788 228.571 819.254 229.567C817.747 230.536 815.944 231.021 813.844 231.021C811.853 231.021 810.049 230.55 808.434 229.608C806.846 228.666 805.595 227.333 804.68 225.611C803.792 223.888 803.347 221.897 803.347 219.636ZM822.605 219.676C822.605 217.9 822.242 216.339 821.515 214.993C820.788 213.647 819.792 212.611 818.527 211.884C817.289 211.158 815.917 210.794 814.409 210.794C812.848 210.794 811.449 211.144 810.211 211.844C808.973 212.544 807.99 213.566 807.264 214.912C806.564 216.231 806.214 217.806 806.214 219.636C806.214 221.439 806.564 223.027 807.264 224.4C807.99 225.745 808.973 226.782 810.211 227.508C811.449 228.208 812.848 228.558 814.409 228.558C815.917 228.558 817.289 228.195 818.527 227.468C819.792 226.741 820.788 225.705 821.515 224.359C822.242 223.014 822.605 221.452 822.605 219.676Z" fill="#33666E"/>
<path d="M852.974 219.636C852.974 217.375 853.431 215.397 854.346 213.701C855.261 211.978 856.513 210.66 858.101 209.745C859.716 208.803 861.532 208.332 863.551 208.332C865.489 208.332 867.238 208.803 868.799 209.745C870.361 210.687 871.504 211.911 872.231 213.418V200.822H875.057V230.698H872.231V225.772C871.558 227.306 870.455 228.571 868.921 229.567C867.386 230.536 865.583 231.021 863.511 231.021C861.492 231.021 859.675 230.55 858.06 229.608C856.473 228.666 855.221 227.333 854.306 225.611C853.418 223.888 852.974 221.897 852.974 219.636ZM872.231 219.676C872.231 217.9 871.868 216.339 871.141 214.993C870.414 213.647 869.418 212.611 868.154 211.884C866.915 211.158 865.543 210.794 864.036 210.794C862.475 210.794 861.075 211.144 859.837 211.844C858.599 212.544 857.616 213.566 856.89 214.912C856.19 216.231 855.84 217.806 855.84 219.636C855.84 221.439 856.19 223.027 856.89 224.4C857.616 225.745 858.599 226.782 859.837 227.508C861.075 228.208 862.475 228.558 864.036 228.558C865.543 228.558 866.915 228.195 868.154 227.468C869.418 226.741 870.414 225.705 871.141 224.359C871.868 223.014 872.231 221.452 872.231 219.676Z" fill="#33666E"/>
<path d="M888.574 204.496C888.009 204.496 887.524 204.294 887.121 203.891C886.717 203.487 886.515 202.989 886.515 202.397C886.515 201.805 886.717 201.32 887.121 200.943C887.524 200.54 888.009 200.338 888.574 200.338C889.139 200.338 889.624 200.54 890.027 200.943C890.431 201.32 890.633 201.805 890.633 202.397C890.633 202.989 890.431 203.487 890.027 203.891C889.624 204.294 889.139 204.496 888.574 204.496ZM889.987 208.655V230.698H887.161V208.655H889.987Z" fill="#33666E"/>
<path d="M911.284 208.332C913.356 208.332 915.16 208.816 916.694 209.785C918.228 210.754 919.331 211.978 920.004 213.459V208.655H922.83V231.263C922.83 233.281 922.386 235.071 921.498 236.632C920.637 238.193 919.426 239.391 917.865 240.225C916.303 241.087 914.527 241.517 912.535 241.517C909.709 241.517 907.354 240.845 905.47 239.499C903.613 238.153 902.456 236.323 901.998 234.008H904.784C905.268 235.542 906.184 236.767 907.529 237.682C908.902 238.597 910.571 239.055 912.535 239.055C913.962 239.055 915.24 238.745 916.371 238.126C917.501 237.534 918.389 236.646 919.035 235.462C919.681 234.277 920.004 232.878 920.004 231.263V225.813C919.304 227.32 918.188 228.571 916.653 229.567C915.146 230.536 913.356 231.021 911.284 231.021C909.265 231.021 907.448 230.55 905.834 229.608C904.246 228.666 902.994 227.333 902.079 225.611C901.191 223.888 900.747 221.897 900.747 219.636C900.747 217.375 901.191 215.397 902.079 213.701C902.994 211.978 904.246 210.66 905.834 209.745C907.448 208.803 909.265 208.332 911.284 208.332ZM920.004 219.676C920.004 217.9 919.641 216.339 918.914 214.993C918.187 213.647 917.192 212.611 915.927 211.884C914.689 211.158 913.316 210.794 911.809 210.794C910.248 210.794 908.848 211.144 907.61 211.844C906.372 212.544 905.39 213.566 904.663 214.912C903.963 216.231 903.613 217.806 903.613 219.636C903.613 221.439 903.963 223.027 904.663 224.4C905.39 225.745 906.372 226.782 907.61 227.508C908.848 228.208 910.248 228.558 911.809 228.558C913.316 228.558 914.689 228.195 915.927 227.468C917.192 226.741 918.187 225.705 918.914 224.359C919.641 223.014 920.004 221.452 920.004 219.676Z" fill="#33666E"/>
<path d="M936.347 204.496C935.782 204.496 935.297 204.294 934.894 203.891C934.49 203.487 934.288 202.989 934.288 202.397C934.288 201.805 934.49 201.32 934.894 200.943C935.297 200.54 935.782 200.338 936.347 200.338C936.912 200.338 937.397 200.54 937.8 200.943C938.204 201.32 938.406 201.805 938.406 202.397C938.406 202.989 938.204 203.487 937.8 203.891C937.397 204.294 936.912 204.496 936.347 204.496ZM937.76 208.655V230.698H934.934V208.655H937.76Z" fill="#33666E"/>
<path d="M953.486 211.036V224.723C953.486 226.068 953.741 226.997 954.253 227.508C954.764 228.02 955.666 228.275 956.958 228.275H959.541V230.698H956.514C954.522 230.698 953.042 230.24 952.073 229.325C951.104 228.383 950.619 226.849 950.619 224.723V211.036H947.551V208.655H950.619V203.124H953.486V208.655H959.541V211.036H953.486Z" fill="#33666E"/>
<path d="M968.562 219.636C968.562 217.375 969.006 215.397 969.895 213.701C970.81 211.978 972.061 210.66 973.649 209.745C975.264 208.803 977.081 208.332 979.099 208.332C981.199 208.332 983.002 208.816 984.509 209.785C986.043 210.754 987.147 211.992 987.82 213.499V208.655H990.646V230.698H987.82V225.813C987.12 227.32 986.003 228.571 984.469 229.567C982.962 230.536 981.158 231.021 979.059 231.021C977.067 231.021 975.264 230.55 973.649 229.608C972.061 228.666 970.81 227.333 969.895 225.611C969.006 223.888 968.562 221.897 968.562 219.636ZM987.82 219.676C987.82 217.9 987.457 216.339 986.73 214.993C986.003 213.647 985.007 212.611 983.742 211.884C982.504 211.158 981.132 210.794 979.624 210.794C978.063 210.794 976.664 211.144 975.426 211.844C974.188 212.544 973.205 213.566 972.478 214.912C971.779 216.231 971.429 217.806 971.429 219.636C971.429 221.439 971.779 223.027 972.478 224.4C973.205 225.745 974.188 226.782 975.426 227.508C976.664 228.208 978.063 228.558 979.624 228.558C981.132 228.558 982.504 228.195 983.742 227.468C985.007 226.741 986.003 225.705 986.73 224.359C987.457 223.014 987.82 221.452 987.82 219.676Z" fill="#33666E"/>
<path d="M1005.58 200.822V230.698H1002.75V200.822H1005.58Z" fill="#33666E"/>
<path d="M239.489 193.77C156.995 176.545 85.0681 201.903 17.0997 248C14.1888 244.456 11.0742 240.942 8.36709 237.224C5.66 233.506 3.44775 230.049 0.362244 225.605C3.08887 223.157 6.00922 220.932 9.09481 218.953C46.6605 198.845 87.6774 185.957 130.012 180.96C164.625 176.734 199.747 180.165 232.881 191.011C235.152 191.621 237.306 192.811 239.489 193.77Z" fill="#1C9647"/>
<path d="M25.6284 198.418C22.3974 191.65 19.8067 186.073 17.0997 180.438C16.1391 178.346 15.4405 176.11 14.1888 172.769C42.3076 161.79 70.8922 156.242 99.8844 152.727C128.876 149.213 158.393 147.266 190.121 154.499C159.935 157.404 132.253 159.495 105.386 167.396C77.9893 175.527 51.3127 185.903 25.6284 198.418Z" fill="#33666E"/>
<path d="M53.8638 142.677L48.4494 113.108C104.047 109.651 157.199 111.19 207.732 134.283C156.035 122.344 105.444 130.477 53.8638 142.677Z" fill="#334543"/>
<path d="M83.5836 94.4597C81.2177 85.4981 80.9785 76.1096 82.885 67.0396C127.625 69.6538 169.745 78.8324 208.052 102.651C194.778 99.746 181.621 96.1443 168.231 94.3434C154.415 92.4954 140.487 91.6025 126.548 91.6711C112.605 91.7292 98.7782 93.2978 83.5836 94.4597Z" fill="#1C9647"/>
<path d="M133.505 60.446L137.929 33.636C149.573 32.7936 158.567 39.0677 167.649 43.628C187.472 53.591 206.276 65.3259 220.219 83.6833C193.963 67.911 164.767 63.1474 133.505 60.446Z" fill="#33666E"/>
<path d="M162.788 24.1668L175.305 0C193.629 13.4539 207.759 31.8136 216.056 52.9519C208.378 47.0666 200.38 41.6073 192.1 36.5988C183.397 31.8351 173.674 28.669 162.788 24.1668Z" fill="#334543"/>
<path d="M282.511 174.628H275.642V79.9363H282.511V174.628Z" fill="#1B9646"/>
<path d="M390.3 127.195C390.403 133.901 389.299 140.572 387.04 146.889C385.032 152.447 381.879 157.523 377.784 161.79C373.76 165.924 368.883 169.136 363.491 171.201C357.631 173.44 351.399 174.553 345.124 174.483H310.514V79.9363H345.124C351.399 79.8659 357.631 80.9796 363.491 83.2186C368.883 85.2834 373.76 88.4948 377.784 92.6297C381.866 96.9063 385.018 101.98 387.04 107.531C389.297 113.838 390.401 120.498 390.3 127.195ZM383.227 127.195C383.271 121.186 382.287 115.213 380.316 109.535C378.682 104.684 376.044 100.231 372.573 96.4638C369.217 92.8802 365.099 90.0914 360.522 88.3017C355.574 86.354 350.298 85.3681 344.978 85.3971H317.267V168.819H344.978C350.298 168.848 355.574 167.862 360.522 165.914C365.094 164.114 369.209 161.327 372.573 157.752C376.039 153.97 378.676 149.508 380.316 144.652C382.263 139.038 383.247 133.136 383.227 127.195Z" fill="#1B9646"/>
<path d="M469.155 168.819V174.628H412.394V79.9363H469.155V85.7457H419.176V123.971H460.685V129.49H419.176V168.819H469.155Z" fill="#1B9646"/>
<path d="M561.983 174.628H556.685C556.129 174.648 555.583 174.474 555.142 174.134C554.727 173.783 554.407 173.334 554.21 172.827L543.091 145.378H496.517L485.427 172.827C485.233 173.335 484.9 173.777 484.467 174.105C484.011 174.461 483.444 174.646 482.866 174.628H477.655L516.428 80.0815H523.181L561.983 174.628ZM541.024 140.295L521.725 92.5134C520.961 90.6894 520.319 88.8166 519.804 86.9074C519.513 87.9918 519.222 88.9601 518.931 89.8121C518.611 90.7706 518.261 91.6421 517.912 92.4554L498.642 140.15L541.024 140.295Z" fill="#1B9646"/>
<path d="M623.693 91.4388C623.545 91.7774 623.3 92.0653 622.99 92.2667C622.679 92.4681 622.316 92.5741 621.946 92.5716C621.083 92.4274 620.293 91.9978 619.705 91.3517C618.554 90.2849 617.317 89.3134 616.008 88.4471C614.178 87.2717 612.226 86.2978 610.186 85.5424C604.4 83.7693 598.203 83.8404 592.459 85.7458C590.008 86.6042 587.766 87.9702 585.881 89.7542C584.162 91.3938 582.804 93.3721 581.893 95.5635C580.961 97.79 580.486 100.18 580.496 102.593C580.399 105.376 581.106 108.129 582.533 110.522C583.942 112.663 585.787 114.485 587.947 115.867C590.309 117.427 592.863 118.676 595.545 119.585C598.378 120.592 601.289 121.56 604.277 122.49C607.188 123.477 610.099 124.552 613.01 125.743C615.732 126.875 618.288 128.37 620.607 130.187C622.845 131.973 624.68 134.21 625.992 136.752C627.446 139.784 628.145 143.122 628.03 146.482C628.062 150.305 627.371 154.099 625.992 157.665C624.71 161.077 622.727 164.184 620.17 166.786C617.447 169.452 614.209 171.537 610.652 172.914C606.543 174.465 602.178 175.224 597.786 175.151C592.228 175.293 586.711 174.161 581.66 171.84C577.151 169.627 573.125 166.547 569.813 162.777L571.676 159.873C571.893 159.573 572.177 159.327 572.505 159.156C572.833 158.985 573.197 158.892 573.568 158.885C574.154 158.973 574.695 159.248 575.111 159.669L577.381 161.645C578.283 162.429 579.331 163.271 580.583 164.172C581.951 165.165 583.413 166.021 584.949 166.728C586.776 167.561 588.676 168.222 590.625 168.703C593.021 169.254 595.474 169.517 597.932 169.487C601.355 169.549 604.759 168.978 607.974 167.802C610.752 166.764 613.295 165.184 615.455 163.155C617.482 161.179 619.06 158.792 620.083 156.155C621.187 153.383 621.74 150.423 621.713 147.441C621.827 144.551 621.11 141.688 619.647 139.191C618.285 136.999 616.444 135.142 614.261 133.76C611.889 132.24 609.337 131.021 606.664 130.129C603.831 129.141 600.92 128.173 597.932 127.224C594.943 126.275 592.032 125.23 589.199 124.087C586.459 122.991 583.898 121.493 581.602 119.643C579.339 117.812 577.502 115.513 576.217 112.904C574.752 109.731 574.054 106.259 574.179 102.767C574.164 99.6277 574.778 96.5169 575.984 93.6173C577.186 90.6893 578.98 88.0395 581.252 85.8328C583.782 83.481 586.749 81.6457 589.985 80.4302C593.7 79.017 597.653 78.3268 601.628 78.3969C606.141 78.3299 610.626 79.1184 614.844 80.7206C618.857 82.3483 622.493 84.7803 625.526 87.8661L623.693 91.4388Z" fill="#1B9646"/>
<path d="M675.699 92.0483V120.743H711.667V135.09H675.699V174.465H657.763V77.8605H718.321V92.1439L675.699 92.0483Z" fill="#334543"/>
<path d="M807.717 174.46H793.898C792.543 174.515 791.211 174.099 790.126 173.281C789.164 172.516 788.412 171.517 787.939 170.379L780.745 150.677H740.968L733.805 170.379C733.391 171.489 732.677 172.461 731.745 173.185C730.665 174.046 729.319 174.498 727.942 174.46H713.996L751.808 77.8605H770L807.717 174.46ZM776.022 137.956L764.327 105.82C763.756 104.417 763.154 102.728 762.52 100.751C761.918 98.8064 761.284 96.6703 760.682 94.3749C760.08 96.6385 759.509 98.7745 758.875 100.751C758.242 102.728 757.671 104.481 757.069 105.948L745.469 137.829L776.022 137.956Z" fill="#334543"/>
<path d="M894.228 174.45H877.754C876.388 174.538 875.025 174.243 873.822 173.6C872.619 172.957 871.626 171.992 870.957 170.816L850.339 139.898C849.722 138.883 848.853 138.038 847.814 137.444C846.525 136.875 845.114 136.623 843.703 136.711H835.903V174.45H817.81V77.8714H847.717C853.501 77.7649 859.274 78.4405 864.872 79.8794C869.128 80.9988 873.113 82.9499 876.589 85.6167C879.552 87.9362 881.877 90.9497 883.353 94.3821C884.819 97.9561 885.556 101.779 885.522 105.634C885.543 108.761 885.051 111.872 884.065 114.845C883.102 117.685 881.682 120.354 879.858 122.75C877.96 125.226 875.664 127.379 873.06 129.125C870.214 130.949 867.119 132.365 863.868 133.332C865.04 133.986 866.127 134.778 867.105 135.691C868.13 136.649 869.042 137.718 869.824 138.878L894.228 174.45ZM847.296 123.802C850.346 123.864 853.386 123.433 856.294 122.527C858.623 121.825 860.766 120.628 862.573 119.021C864.217 117.568 865.492 115.756 866.296 113.73C867.12 111.571 867.526 109.279 867.493 106.972C867.628 104.844 867.254 102.713 866.399 100.753C865.545 98.7933 864.234 97.0584 862.573 95.6889C858.166 92.734 852.871 91.3405 847.555 91.7365H835.903V123.802H847.296Z" fill="#334543"/>
<path d="M1009.58 77.8605V174.465H993.625V112.005C993.625 109.521 993.625 106.845 994.039 103.947L964.814 158.731C964.263 159.947 963.363 160.972 962.226 161.676C961.09 162.379 959.769 162.729 958.433 162.68H955.881C954.545 162.725 953.226 162.373 952.091 161.67C950.955 160.968 950.054 159.945 949.5 158.731L919.955 103.755C919.955 105.221 920.21 106.654 920.274 108.087C920.338 109.521 920.274 110.827 920.274 112.005V174.465H904.321V77.9561H917.881C918.572 77.9201 919.264 77.9201 919.955 77.9561C920.501 77.9725 921.04 78.0801 921.55 78.2746C922.021 78.4709 922.445 78.764 922.795 79.1346C923.236 79.6253 923.612 80.1714 923.911 80.759L952.849 134.333C953.615 135.766 954.317 137.231 954.955 138.76C955.593 140.289 956.231 141.945 956.87 143.41C957.508 141.786 958.146 140.225 958.816 138.633C959.486 137.04 960.188 135.639 960.954 134.205L989.509 80.759C989.809 80.1714 990.184 79.6253 990.625 79.1346C991.004 78.7694 991.448 78.4777 991.934 78.2746C992.434 78.0835 992.962 77.976 993.497 77.9561C994.188 77.9212 994.88 77.9212 995.571 77.9561L1009.58 77.8605Z" fill="#334543"/>
</svg>
