<svg xmlns="http://www.w3.org/2000/svg" viewBox="0 0 24 24"><defs><style>.cls-1{opacity:0.3;}</style></defs><g id="arrows"><g id="arrow-up-down"><path class="cls-1" d="M19.78,18a.68.68,0,0,0-1,0l-1.64,1.62,0-16.78h0A.73.73,0,0,0,16.41,2a.73.73,0,0,0-.71.75l0,16.68L14.36,18a.68.68,0,0,0-1,0,.79.79,0,0,0,0,1.06l2.59,2.73a.68.68,0,0,0,1,0L19.75,19a.78.78,0,0,0,.22-.56A.73.73,0,0,0,19.78,18Z"/><path d="M10.51,4.91,8,2.22A.68.68,0,0,0,7.45,2h0a.72.72,0,0,0-.51.22L4.23,5.05a.76.76,0,0,0,0,1,.7.7,0,0,0,.5.21.68.68,0,0,0,.5-.22L6.66,4.6V21.27a.71.71,0,1,0,1.42,0V4.45L9.5,5.94a.69.69,0,0,0,1,0A.75.75,0,0,0,10.51,4.91Z"/></g></g></svg>