<svg xmlns="http://www.w3.org/2000/svg" viewBox="0 0 24 24"><defs><style>.cls-1{opacity:0.3;}</style></defs><g id="security"><g id="eye-slash"><path d="M2.88,21.84a.79.79,0,0,1-.54-.22.76.76,0,0,1,0-1.07L20.6,2.38a.75.75,0,1,1,1,1.07L3.4,21.62A.74.74,0,0,1,2.88,21.84Z"/><path d="M9.15,12.61A2.86,2.86,0,0,1,12,9.76a2.82,2.82,0,0,1,2.21,1.07l-4,4A2.83,2.83,0,0,1,9.15,12.61Zm2.56,2.82a2.85,2.85,0,0,0,.29,0,2.85,2.85,0,0,0,2.85-2.85,2.48,2.48,0,0,0,0-.27Z"/><path class="cls-1" d="M6.05,19l3.1-3.09a4.33,4.33,0,1,1,6.12-6.1l3.16-3.15A10.67,10.67,0,0,0,12,4.05c-4.73,0-10,4.62-10,8.56C2,14.75,3.71,17.22,6.05,19Z"/><path class="cls-1" d="M16.06,11.1a4.22,4.22,0,0,1,.29,1.51,4.32,4.32,0,0,1-5.88,4.06L7.33,19.79A9.56,9.56,0,0,0,12,21.17c5,0,10-4.59,10-8.56a7.65,7.65,0,0,0-2.46-5Z"/></g></g></svg>