<svg xmlns="http://www.w3.org/2000/svg" viewBox="0 0 24 24"><defs><style>.cls-1{opacity:0.3;}</style></defs><g id="notification"><g id="notification-2" data-name="notification"><g class="cls-1"><path d="M19.08,15a8.13,8.13,0,0,1-1.34-4.59v-.18A5.61,5.61,0,0,0,9.92,5.09a5.38,5.38,0,0,0-3.33,5.06v.06A8.08,8.08,0,0,1,5,15.06L4.34,16a2.11,2.11,0,0,0-.41,1.26h0a2.12,2.12,0,0,0,2.12,2.12H18a2.12,2.12,0,0,0,2.12-2.12v-.06A2.11,2.11,0,0,0,19.76,16Z"/></g><path d="M10.09,20.32a1.95,1.95,0,0,0,3.86,0Z"/><path d="M12.76,4.68a0,0,0,0,0,0,0V2.75a.75.75,0,0,0-1.5,0v1.9a.14.14,0,0,0,0,.07A6.07,6.07,0,0,1,12.76,4.68Z"/></g></g></svg>