<svg xmlns="http://www.w3.org/2000/svg" viewBox="0 0 24 24"><defs><style>.cls-1{opacity:0.3;}</style></defs><g id="communication"><g id="directbox-default"><path d="M17,22H7a4,4,0,0,1-4-4V14.62A3.32,3.32,0,0,1,6.25,11.3h.81a3.38,3.38,0,0,1,2.58,1.2l.29.35a2.69,2.69,0,0,0,4.12,0l.29-.35a3.38,3.38,0,0,1,2.58-1.2h.83a3.32,3.32,0,0,1,3.32,3.32V18A4,4,0,0,1,17,22Z"/><g class="cls-1"><rect x="4.79" y="2" width="14.44" height="13.14" rx="3.17"/></g><path d="M14.25,7.17H9.75a.75.75,0,0,1,0-1.5h4.5a.75.75,0,0,1,0,1.5Z"/><path d="M13.23,10H10.65a.75.75,0,1,1,0-1.5h2.58a.75.75,0,0,1,0,1.5Z"/></g></g></svg>