<svg xmlns="http://www.w3.org/2000/svg" viewBox="0 0 24 24"><defs><style>.cls-1{opacity:0.3;}</style></defs><g id="setting"><g id="setting-2"><path class="cls-1" d="M20.18,9.24H18.79a6.91,6.91,0,0,0-1-1.73l.68-1.18a1.86,1.86,0,0,0-.68-2.53l-1.63-.94a1.85,1.85,0,0,0-2.53.68l-.69,1.2A7.3,7.3,0,0,0,12,4.66a7.3,7.3,0,0,0-.94.07l-.67-1.19a1.85,1.85,0,0,0-2.52-.7l-1.64.93a1.85,1.85,0,0,0-.7,2.52L6.21,7.5a7.3,7.3,0,0,0-1,1.71H3.86A1.83,1.83,0,0,0,2,11.05v1.88a1.85,1.85,0,0,0,1.84,1.86H5.21a7,7,0,0,0,1,1.71l-.69,1.18A1.84,1.84,0,0,0,6.2,20.2l1.63.95a1.85,1.85,0,0,0,2.53-.68l.69-1.2a6,6,0,0,0,.95.07,8.09,8.09,0,0,0,1-.07l.68,1.18a1.84,1.84,0,0,0,2.52.68l1.63-.94a1.84,1.84,0,0,0,.69-2.52l-.69-1.2a7.81,7.81,0,0,0,1-1.66l1.35,0A1.87,1.87,0,0,0,22,13V11.11A1.85,1.85,0,0,0,20.18,9.24Z"/><circle cx="11.99" cy="12" r="3.25"/></g></g></svg>