<svg xmlns="http://www.w3.org/2000/svg" viewBox="0 0 24 24"><defs><style>.cls-1{opacity:0.3;}</style></defs><g id="setting"><g id="setting-3"><rect class="cls-1" x="2" y="2" width="19.99" height="19.99" rx="5.13"/><path d="M8.42,10.15a.76.76,0,0,0,.75-.75V5.5a.75.75,0,0,0-1.5,0V9.4A.76.76,0,0,0,8.42,10.15Z"/><path d="M8.42,11.15a2.72,2.72,0,0,0-.75,5.34v2a.74.74,0,0,0,.75.75h0a.76.76,0,0,0,.75-.75v-2a2.72,2.72,0,0,0-.75-5.34Z"/><path d="M15.58,13.85a.76.76,0,0,0-.75.75v3.9a.75.75,0,0,0,1.5,0V14.6A.76.76,0,0,0,15.58,13.85Z"/><path d="M16.33,7.51v-2a.76.76,0,0,0-.75-.75h0a.74.74,0,0,0-.75.75v2a2.73,2.73,0,1,0,1.5,0Z"/></g></g></svg>