<svg xmlns="http://www.w3.org/2000/svg" viewBox="0 0 24 24"><defs><style>.cls-1{opacity:0.4;isolation:isolate;}</style></defs><g id="social-media"><g id="whatsapp"><path class="cls-1" d="M22,11.41a10,10,0,0,0-19.86-1A10.14,10.14,0,0,0,3.33,17l-.89,3.31a1,1,0,0,0,.12.78.92.92,0,0,0,.34.34,1,1,0,0,0,.77.1l3.27-.9A10,10,0,0,0,12,22,10.15,10.15,0,0,0,22,11.41Z"/><path d="M7.77,7.45c-.94.86-1.11,2.09-.13,4a12.55,12.55,0,0,0,4.51,4.68c1.63.93,2.74,1.17,3.88.51A1.68,1.68,0,0,0,17,14.8a2.31,2.31,0,0,0-.28-.32l-2-1.38a.7.7,0,0,0-.67,0,8.38,8.38,0,0,0-.74.66.31.31,0,0,1-.34.07,9.76,9.76,0,0,1-2.78-2.77.26.26,0,0,1,.06-.32c.16-.17.66-.76.66-.76A.67.67,0,0,0,11,9.66a1.58,1.58,0,0,0-.07-.31l-1.35-2A.86.86,0,0,0,8.81,7,1.52,1.52,0,0,0,7.77,7.45Z"/></g></g></svg>